<svg width="168" height="168" viewBox="0 0 168 168" fill="none" xmlns="http://www.w3.org/2000/svg">
<circle cx="84.0001" cy="84" r="12" fill="#0FA3B1"/>
<path d="M152 34C152 44.4934 143.494 53 133 53C122.507 53 114 44.4934 114 34C114 23.5066 122.507 15 133 15C143.494 15 152 23.5066 152 34ZM119.576 34C119.576 41.4141 125.586 47.4244 133 47.4244C140.414 47.4244 146.425 41.4141 146.425 34C146.425 26.5859 140.414 20.5756 133 20.5756C125.586 20.5756 119.576 26.5859 119.576 34Z" fill="#0FA3B1"/>
<path d="M132.536 71.9892C135.132 82.4789 134.259 93.5272 130.05 103.479C125.84 113.432 118.519 121.752 109.183 127.195C99.848 132.638 89.0006 134.909 78.2658 133.67C67.5311 132.431 57.4867 127.747 49.637 120.32C41.7874 112.894 36.555 103.124 34.7235 92.4743C32.892 81.8246 34.56 70.8681 39.4777 61.2458C44.3953 51.6236 52.298 43.8534 62.002 39.0992C71.7061 34.3449 82.6892 32.8624 93.3065 34.8737L91.1617 46.1954C82.9913 44.6476 74.5394 45.7884 67.0717 49.447C59.6041 53.1056 53.5227 59.085 49.7383 66.4898C45.954 73.8945 44.6704 82.3259 46.0798 90.5213C47.4892 98.7167 51.5157 106.235 57.5563 111.95C63.597 117.665 71.3265 121.269 79.5874 122.223C87.8482 123.177 96.1957 121.429 103.38 117.24C110.564 113.052 116.197 106.649 119.437 98.9902C122.677 91.3316 123.348 82.8294 121.35 74.7572L132.536 71.9892Z" fill="#0FA3B1"/>
<path d="M165.61 64.1042C169.931 81.827 168.365 100.475 161.148 117.228C153.932 133.982 141.459 147.932 125.612 156.969C109.766 166.005 91.4089 169.638 73.3152 167.318C55.2215 164.997 38.375 156.85 25.3218 144.107C12.2687 131.364 3.71849 114.718 0.963569 96.6859C-1.79135 78.6532 1.39875 60.2139 10.0517 44.1549C18.7047 28.0959 32.3501 15.2902 48.9256 7.67321C65.5011 0.0562577 84.1057 -1.95786 101.927 1.93528L99.4253 13.3886C84.0909 10.0388 68.0829 11.7718 53.8208 18.3257C39.5586 24.8796 27.8176 35.8981 20.3722 49.7158C12.9269 63.5336 10.182 79.3995 12.5525 94.9154C14.9229 110.431 22.2798 124.754 33.5112 135.718C44.7426 146.683 59.238 153.693 74.8064 155.69C90.3749 157.686 106.17 154.56 119.805 146.785C133.439 139.009 144.172 127.007 150.381 112.591C156.59 98.1753 157.938 82.1302 154.22 66.8809L165.61 64.1042Z" fill="#0FA3B1"/>
<path d="M84.0001 84L121 47" stroke="#0FA3B1" stroke-width="7"/>
</svg>
