<svg width="826" height="168" viewBox="0 0 826 168" fill="none" xmlns="http://www.w3.org/2000/svg">
<circle cx="84.0001" cy="84" r="12" fill="#0FA3B1"/>
<path d="M152 34C152 44.4934 143.494 53 133 53C122.507 53 114 44.4934 114 34C114 23.5066 122.507 15 133 15C143.494 15 152 23.5066 152 34ZM119.576 34C119.576 41.4141 125.586 47.4244 133 47.4244C140.414 47.4244 146.425 41.4141 146.425 34C146.425 26.5859 140.414 20.5756 133 20.5756C125.586 20.5756 119.576 26.5859 119.576 34Z" fill="#0FA3B1"/>
<path d="M132.536 71.9892C135.132 82.4789 134.259 93.5272 130.05 103.479C125.84 113.432 118.519 121.752 109.183 127.195C99.848 132.638 89.0006 134.909 78.2658 133.67C67.5311 132.431 57.4867 127.747 49.637 120.32C41.7874 112.894 36.555 103.124 34.7235 92.4743C32.892 81.8246 34.56 70.8681 39.4777 61.2458C44.3953 51.6236 52.298 43.8534 62.002 39.0992C71.7061 34.3449 82.6892 32.8624 93.3065 34.8737L91.1617 46.1954C82.9913 44.6476 74.5394 45.7884 67.0717 49.447C59.6041 53.1056 53.5227 59.085 49.7383 66.4898C45.954 73.8945 44.6704 82.3259 46.0798 90.5213C47.4892 98.7167 51.5157 106.235 57.5563 111.95C63.597 117.665 71.3265 121.269 79.5874 122.223C87.8482 123.177 96.1957 121.429 103.38 117.24C110.564 113.052 116.197 106.649 119.437 98.9902C122.677 91.3316 123.348 82.8294 121.35 74.7572L132.536 71.9892Z" fill="#0FA3B1"/>
<path d="M165.61 64.1042C169.931 81.827 168.365 100.475 161.148 117.228C153.932 133.982 141.459 147.932 125.612 156.969C109.766 166.005 91.4089 169.638 73.3152 167.318C55.2215 164.997 38.375 156.85 25.3218 144.107C12.2687 131.364 3.71849 114.718 0.963569 96.6859C-1.79135 78.6532 1.39875 60.2139 10.0517 44.1549C18.7047 28.0959 32.3501 15.2902 48.9256 7.67321C65.5011 0.0562577 84.1057 -1.95786 101.927 1.93528L99.4253 13.3886C84.0909 10.0388 68.0829 11.7718 53.8208 18.3257C39.5586 24.8796 27.8176 35.8981 20.3722 49.7158C12.9269 63.5336 10.182 79.3995 12.5525 94.9154C14.9229 110.431 22.2798 124.754 33.5112 135.718C44.7426 146.683 59.238 153.693 74.8064 155.69C90.3749 157.686 106.17 154.56 119.805 146.785C133.439 139.009 144.172 127.007 150.381 112.591C156.59 98.1753 157.938 82.1302 154.22 66.8809L165.61 64.1042Z" fill="#0FA3B1"/>
<path d="M84.0001 84L121 47" stroke="#0FA3B1" stroke-width="7"/>
<path d="M627.273 138.364C620.212 138.364 614.106 136.864 608.955 133.864C603.833 130.833 599.879 126.621 597.091 121.227C594.303 115.803 592.909 109.515 592.909 102.364C592.909 95.1515 594.303 88.8485 597.091 83.4545C599.879 78.0303 603.833 73.8182 608.955 70.8182C614.106 67.7879 620.212 66.2727 627.273 66.2727C634.333 66.2727 640.424 67.7879 645.546 70.8182C650.697 73.8182 654.667 78.0303 657.455 83.4545C660.243 88.8485 661.636 95.1515 661.636 102.364C661.636 109.515 660.243 115.803 657.455 121.227C654.667 126.621 650.697 130.833 645.546 133.864C640.424 136.864 634.333 138.364 627.273 138.364ZM627.364 123.364C630.576 123.364 633.258 122.455 635.409 120.636C637.561 118.788 639.182 116.273 640.273 113.091C641.394 109.909 641.955 106.288 641.955 102.227C641.955 98.1667 641.394 94.5455 640.273 91.3636C639.182 88.1818 637.561 85.6667 635.409 83.8182C633.258 81.9697 630.576 81.0455 627.364 81.0455C624.121 81.0455 621.394 81.9697 619.182 83.8182C617 85.6667 615.349 88.1818 614.227 91.3636C613.136 94.5455 612.591 98.1667 612.591 102.227C612.591 106.288 613.136 109.909 614.227 113.091C615.349 116.273 617 118.788 619.182 120.636C621.394 122.455 624.121 123.364 627.364 123.364ZM723.216 96.6364V137H703.852V67.1818H722.307V79.5H723.125C724.671 75.4394 727.261 72.2273 730.898 69.8636C734.534 67.4697 738.943 66.2727 744.125 66.2727C748.974 66.2727 753.201 67.3333 756.807 69.4545C760.413 71.5758 763.216 74.6061 765.216 78.5455C767.216 82.4545 768.216 87.1212 768.216 92.5455V137H748.852V96C748.883 91.7273 747.792 88.3939 745.58 86C743.368 83.5758 740.322 82.3636 736.443 82.3636C733.837 82.3636 731.534 82.9242 729.534 84.0455C727.565 85.1667 726.019 86.803 724.898 88.9545C723.807 91.0758 723.246 93.6364 723.216 96.6364ZM820.614 67.1818V81.7273H778.568V67.1818H820.614ZM788.114 50.4545H807.477V115.545C807.477 117.333 807.75 118.727 808.296 119.727C808.841 120.697 809.599 121.379 810.568 121.773C811.568 122.167 812.72 122.364 814.023 122.364C814.932 122.364 815.841 122.288 816.75 122.136C817.659 121.955 818.356 121.818 818.841 121.727L821.886 136.136C820.917 136.439 819.553 136.788 817.796 137.182C816.038 137.606 813.902 137.864 811.386 137.955C806.72 138.136 802.629 137.515 799.114 136.091C795.629 134.667 792.917 132.455 790.977 129.455C789.038 126.455 788.083 122.667 788.114 118.091V50.4545Z" fill="#0FA3B1"/>
<path d="M319.953 41.3719C324.577 45.9955 324.613 53.4555 320.034 58.0342C315.455 62.613 307.995 62.5767 303.372 57.9531C298.748 53.3295 298.712 45.8695 303.291 41.2907C307.869 36.7119 315.329 36.7483 319.953 41.3719ZM308.27 53.0552C310.162 54.9473 313.215 54.9622 315.088 53.0885C316.962 51.2147 316.947 48.1618 315.055 46.2697C313.163 44.3776 310.11 44.3627 308.236 46.2365C306.363 48.1103 306.378 51.1631 308.27 53.0552Z" fill="#0FA3B1"/>
<path d="M689.953 41.3719C694.577 45.9955 694.613 53.4555 690.034 58.0342C685.455 62.613 677.995 62.5767 673.372 57.9531C668.748 53.3295 668.712 45.8695 673.291 41.2907C677.869 36.7119 685.329 36.7483 689.953 41.3719ZM678.27 53.0552C680.162 54.9473 683.215 54.9622 685.088 53.0885C686.962 51.2147 686.947 48.1618 685.055 46.2697C683.163 44.3776 680.11 44.3627 678.236 46.2365C676.363 48.1103 676.378 51.1631 678.27 53.0552Z" fill="#0FA3B1"/>
<path d="M312 137V67" stroke="#0FA3B1" stroke-width="19"/>
<path d="M682 137V67" stroke="#0FA3B1" stroke-width="19"/>
<path d="M351.091 96.6364V137H331.727V67.1818H350.182V79.5H351C352.546 75.4394 355.136 72.2273 358.773 69.8636C362.409 67.4697 366.818 66.2727 372 66.2727C376.849 66.2727 381.076 67.3333 384.682 69.4545C388.288 71.5758 391.091 74.6061 393.091 78.5455C395.091 82.4545 396.091 87.1212 396.091 92.5455V137H376.727V96C376.758 91.7273 375.667 88.3939 373.455 86C371.243 83.5758 368.197 82.3636 364.318 82.3636C361.712 82.3636 359.409 82.9242 357.409 84.0455C355.44 85.1667 353.894 86.803 352.773 88.9545C351.682 91.0758 351.121 93.6364 351.091 96.6364ZM442.807 164.636C436.534 164.636 431.155 163.773 426.671 162.045C422.216 160.348 418.671 158.03 416.034 155.091C413.398 152.152 411.686 148.848 410.898 145.182L428.807 142.773C429.352 144.167 430.216 145.47 431.398 146.682C432.58 147.894 434.14 148.864 436.08 149.591C438.049 150.348 440.443 150.727 443.261 150.727C447.474 150.727 450.943 149.697 453.671 147.636C456.428 145.606 457.807 142.197 457.807 137.409V124.636H456.989C456.14 126.576 454.868 128.409 453.171 130.136C451.474 131.864 449.292 133.273 446.625 134.364C443.958 135.455 440.777 136 437.08 136C431.837 136 427.065 134.788 422.761 132.364C418.489 129.909 415.08 126.167 412.534 121.136C410.019 116.076 408.761 109.682 408.761 101.955C408.761 94.0455 410.049 87.4394 412.625 82.1364C415.201 76.8333 418.625 72.8636 422.898 70.2273C427.201 67.5909 431.913 66.2727 437.034 66.2727C440.943 66.2727 444.216 66.9394 446.852 68.2727C449.489 69.5758 451.61 71.2121 453.216 73.1818C454.852 75.1212 456.11 77.0303 456.989 78.9091H457.716V67.1818H476.943V137.682C476.943 143.621 475.489 148.591 472.58 152.591C469.671 156.591 465.64 159.591 460.489 161.591C455.368 163.621 449.474 164.636 442.807 164.636ZM443.216 121.455C446.337 121.455 448.974 120.682 451.125 119.136C453.307 117.561 454.974 115.318 456.125 112.409C457.307 109.47 457.898 105.955 457.898 101.864C457.898 97.7727 457.322 94.2273 456.171 91.2273C455.019 88.197 453.352 85.8485 451.171 84.1818C448.989 82.5151 446.337 81.6818 443.216 81.6818C440.034 81.6818 437.352 82.5455 435.171 84.2727C432.989 85.9697 431.337 88.3333 430.216 91.3636C429.095 94.3939 428.534 97.8939 428.534 101.864C428.534 105.894 429.095 109.379 430.216 112.318C431.368 115.227 433.019 117.485 435.171 119.091C437.352 120.667 440.034 121.455 443.216 121.455Z" fill="#0FA3B1"/>
<path fill-rule="evenodd" clip-rule="evenodd" d="M228.779 18.425C237.002 15.0191 246.05 14.1282 254.779 15.8645C263.508 17.6009 271.526 21.8867 277.819 28.1799C284.113 34.4732 288.399 42.491 290.136 51.22C291.872 59.9491 290.98 68.9973 287.574 77.22C284.168 85.4425 278.401 92.4706 271.001 97.4153C263.832 102.205 255.443 104.832 246.834 104.991L246 104.999H232V82.9993H246V82.9495C250.539 82.9495 254.976 81.6031 258.75 79.0813C262.524 76.5596 265.466 72.9759 267.203 68.7825C268.94 64.5889 269.394 59.9736 268.509 55.5217C267.623 51.0702 265.438 46.9812 262.229 43.7717C259.019 40.5622 254.929 38.376 250.478 37.4905C246.026 36.605 241.411 37.0592 237.218 38.7961C233.024 40.5332 229.44 43.4752 226.918 47.2493C224.396 51.0233 223.05 55.4603 223.05 59.9993H223V136.999H201V59.9993C201 51.0993 203.64 42.3994 208.584 34.9993C213.529 27.599 220.557 21.831 228.779 18.425Z" fill="#0FA3B1"/>
<path fill-rule="evenodd" clip-rule="evenodd" d="M530.779 18.425C539.002 15.0191 548.05 14.1282 556.779 15.8645C565.508 17.6009 573.526 21.8867 579.819 28.1799C586.113 34.4732 590.399 42.491 592.136 51.22C593.872 59.9491 592.98 68.9973 589.574 77.22C586.168 85.4425 580.401 92.4706 573.001 97.4153C565.832 102.205 557.443 104.832 548.834 104.991L548 104.999H534V82.9993H548V82.9495C552.539 82.9495 556.976 81.6031 560.75 79.0813C564.524 76.5596 567.466 72.9759 569.203 68.7825C570.94 64.5889 571.394 59.9736 570.509 55.5217C569.623 51.0702 567.438 46.9812 564.229 43.7717C561.019 40.5622 556.929 38.376 552.478 37.4905C548.026 36.605 543.411 37.0592 539.218 38.7961C535.024 40.5332 531.44 43.4752 528.918 47.2493C526.396 51.0233 525.05 55.4603 525.05 59.9993H525V136.999H503V59.9993C503 51.0993 505.64 42.3994 510.584 34.9993C515.529 27.599 522.557 21.831 530.779 18.425Z" fill="#0FA3B1"/>
</svg>
