<svg width="414" height="287" viewBox="0 0 414 287" fill="none" xmlns="http://www.w3.org/2000/svg">
<path d="M154.82 30.96H263.16M184.14 30.96V142.18M209.08 31.71V142.92M232.42 30.96V142.18" stroke="#A75869" stroke-width="9.0284"/>
<path d="M68.6899 19.1301H139.65M278.33 19.1301H352.09" stroke="#A75869" stroke-width="9.0284" strokeLinecap="round"/>
<path fill-rule="evenodd" clip-rule="evenodd" d="M272.512 16.8801H291.357C285.807 19.3821 280.661 22.2425 275.994 25.4057C257.959 37.6286 247.464 54.0395 247.464 71.5902C247.464 89.1404 257.959 105.546 275.993 117.764C294.003 129.965 319.136 137.656 347.12 137.656C356.144 137.656 364.872 136.856 373.16 135.363V144.527C364.805 145.939 356.082 146.684 347.12 146.684C317.573 146.684 290.622 138.58 270.929 125.239C251.261 111.914 238.436 93.0299 238.436 71.5902C238.436 50.1508 251.261 31.2617 270.929 17.9321C271.451 17.5777 271.979 17.227 272.512 16.8801ZM143.305 16.8801H124.46C130.007 19.3808 135.151 22.2395 139.816 25.401C157.851 37.6214 168.346 54.0297 168.346 71.5801C168.346 89.1306 157.851 105.539 139.816 117.759C121.807 129.963 96.6732 137.656 68.69 137.656C60.1324 137.656 51.8417 136.937 43.9399 135.589V144.74C51.9007 146.013 60.1877 146.684 68.69 146.684C98.2367 146.684 125.188 138.578 144.881 125.233C164.549 111.906 177.374 93.0197 177.374 71.5801C177.374 50.1406 164.549 31.2539 144.881 17.9268C144.361 17.5743 143.835 17.2253 143.305 16.8801Z" fill="#A75869"/>
<path d="M136.34 21.3899V127.38M281.64 21.3899V127.38" stroke="#A75869" stroke-width="9.0284"/>
<path d="M314.41 21.3901V137.68M105.97 19.1301V135.42" stroke="#A75869" stroke-width="9.0284"/>
<path d="M125.29 16.5C130.77 16.5 135.21 13.03 135.21 8.75C135.21 4.47 130.77 1 125.29 1C119.81 1 115.37 4.47 115.37 8.75C115.37 13.03 119.81 16.5 125.29 16.5Z" fill="#A75869"/>
<path d="M125.29 16.5C130.77 16.5 135.21 13.03 135.21 8.75C135.21 4.47 130.77 1 125.29 1C119.81 1 115.37 4.47 115.37 8.75C115.37 13.03 119.81 16.5 125.29 16.5Z" stroke="#A75869" stroke-width="0.7524"/>
<path d="M292.01 16.5C297.49 16.5 301.93 13.03 301.93 8.75C301.93 4.47 297.49 1 292.01 1C286.53 1 282.09 4.47 282.09 8.75C282.1 13.03 286.54 16.5 292.01 16.5Z" fill="#A75869"/>
<path d="M292.01 16.5C297.49 16.5 301.93 13.03 301.93 8.75C301.93 4.47 297.49 1 292.01 1C286.53 1 282.09 4.47 282.09 8.75C282.1 13.03 286.54 16.5 292.01 16.5Z" stroke="#A75869" stroke-width="0.7524"/>
<path d="M85.28 21.3899V137.68M334.56 21.3699V137.66" stroke="#A75869" stroke-width="9.0284"/>
<path d="M43.21 139.93L49.1799 140.88" stroke="#A75869" stroke-width="9.0284" strokeLinecap="round"/>
<path d="M372.32 139.93L366.35 140.88" stroke="#A75869" stroke-width="9.0284" strokeLinecap="round"/>
<path d="M18.8 235.03V234.96C18.8 230.82 16.09 229.09 11.27 227.84C7.16 226.79 6.15 226.28 6.15 224.72V224.65C6.15 223.5 7.2 222.58 9.2 222.58C11.2 222.58 13.27 223.46 15.38 224.92L18.09 220.98C15.68 219.05 12.73 217.96 9.27 217.96C4.42 217.96 0.959999 220.81 0.959999 225.12V225.19C0.959999 229.91 4.05 231.23 8.83 232.45C12.8 233.47 13.61 234.15 13.61 235.47V235.54C13.61 236.93 12.32 237.78 10.18 237.78C7.47 237.78 5.23 236.66 3.09 234.9L0 238.6C2.85 241.15 6.48 242.4 10.08 242.4C15.2 242.39 18.8 239.74 18.8 235.03ZM48.21 230.17V230.1C48.21 223.35 42.95 217.89 35.62 217.89C28.29 217.89 22.96 223.42 22.96 230.17V230.24C22.96 236.99 28.22 242.45 35.55 242.45C42.89 242.46 48.21 236.93 48.21 230.17ZM42.75 230.24C42.75 234.31 39.83 237.64 35.63 237.64C31.42 237.64 28.44 234.25 28.44 230.18V230.11C28.44 226.04 31.36 222.71 35.56 222.71C39.76 222.71 42.75 226.1 42.75 230.18V230.24ZM76.61 242.05V218.3H70.98L64.74 228.34L58.5 218.3H52.87V242.05H57.99V226.65L64.61 236.69H64.74L71.42 226.55V242.06H76.61V242.05ZM102.09 242.05V237.4H89.2V232.41H100.4V227.76H89.2V222.94H101.92V218.29H84V242.04H102.09V242.05ZM128.97 242.05L123.17 233.57C126.19 232.45 128.26 230.04 128.26 226.21V226.14C128.26 221.25 124.9 218.3 119.3 218.3H108.44V242.05H113.66V234.45H117.77L122.86 242.05H128.97ZM122.96 226.48C122.96 228.48 121.5 229.84 118.96 229.84H113.67V223.02H118.86C121.4 223.02 122.96 224.17 122.96 226.41V226.48ZM155.77 218.3H150.14L143.93 235.03L137.72 218.3H131.95L141.55 242.22H146.16L155.77 218.3ZM166.59 242.05V218.3H161.37V242.05H166.59ZM191.29 242.05V237.3H179.45V218.3H174.22V242.05H191.29ZM213.99 242.05V237.3H202.15V218.3H196.93V242.05H213.99ZM237.71 242.05V237.4H224.82V232.41H236.02V227.76H224.82V222.94H237.54V218.29H219.62V242.04H237.71V242.05ZM279.68 242.05V218.3H274.05L267.81 228.34L261.57 218.3H255.94V242.05H261.06V226.65L267.68 236.69H267.82L274.5 226.55V242.06H279.68V242.05ZM307.4 231.7V218.3H302.18V231.91C302.18 235.68 300.25 237.61 297.06 237.61C293.87 237.61 291.94 235.61 291.94 231.74V218.3H286.71V231.87C286.71 238.86 290.61 242.42 296.99 242.42C303.37 242.42 307.4 238.89 307.4 231.7ZM331.59 235.03V234.96C331.59 230.82 328.88 229.09 324.06 227.84C319.95 226.79 318.94 226.28 318.94 224.72V224.65C318.94 223.5 319.99 222.58 321.99 222.58C323.99 222.58 326.06 223.46 328.17 224.92L330.88 220.98C328.47 219.05 325.52 217.96 322.06 217.96C317.21 217.96 313.75 220.81 313.75 225.12V225.19C313.75 229.91 316.84 231.23 321.62 232.45C325.59 233.47 326.4 234.15 326.4 235.47V235.54C326.4 236.93 325.11 237.78 322.97 237.78C320.26 237.78 318.02 236.66 315.88 234.9L312.79 238.6C315.64 241.15 319.27 242.4 322.87 242.4C328 242.39 331.59 239.74 331.59 235.03ZM355.92 242.05V237.4H343.03V232.41H354.23V227.76H343.03V222.94H355.75V218.29H337.83V242.04H355.92V242.05ZM382.59 231.7V218.3H377.36V231.91C377.36 235.68 375.43 237.61 372.24 237.61C369.05 237.61 367.12 235.61 367.12 231.74V218.3H361.89V231.87C361.89 238.86 365.79 242.42 372.17 242.42C378.55 242.42 382.59 238.89 382.59 231.7ZM413.36 242.05V218.3H407.73L401.49 228.34L395.25 218.3H389.62V242.05H394.74V226.65L401.36 236.69H401.5L408.18 226.55V242.06H413.36V242.05Z" fill="#A75869"/>
<path d="M86.4201 276.73C84.5201 278.74 82.5901 279.76 81.5301 279.76C80.6501 279.76 80.2601 278.95 80.8101 276.55L82.3501 270.01C82.6501 268.72 82.5001 268.21 82.0801 268.21C80.9601 268.21 78.2501 270.85 76.7701 273.25C76.4101 274.72 75.8601 277.57 75.5601 279.16C74.5601 279.25 73.4801 279.52 72.5401 279.76L72.3301 279.52C73.6001 273.79 74.8101 268.03 75.9801 261.82C76.2501 260.35 76.0101 260.23 74.7701 260.2L74.0501 260.17L74.2601 259.27C77.0701 259.03 78.8801 258.22 79.3601 258.22C79.7201 258.22 79.7801 258.46 79.6001 259.27L77.1001 271.06H77.1601C79.0301 268.69 80.7801 267.34 82.0501 266.62C82.8001 266.17 83.7101 265.84 84.3701 265.84C85.1201 265.84 86.2401 266.32 85.3701 270.07L84.0401 275.95C83.8301 276.85 83.8901 277.12 84.1001 277.12C84.3701 277.12 85.2801 276.58 86.0001 275.92L86.4201 276.73Z" fill="#7D7773"/>
<path d="M95.35 276.58C93.63 278.5 91.34 279.76 90.37 279.76C89.59 279.76 89.01 279.19 89.65 276.64L91.34 269.59C91.49 268.84 91.52 268.57 91.34 268.54C91.07 268.54 90.19 269.05 89.41 269.68L89.02 268.9C91.01 267.04 93.19 265.84 94.18 265.84C94.96 265.84 95.09 266.95 94.66 268.6L92.82 276.01C92.61 276.82 92.67 277.12 92.88 277.12C93.18 277.12 94.06 276.55 94.87 275.86L95.35 276.58ZM94.38 259.75C95.41 259.75 95.92 260.53 95.92 261.4C95.92 262.48 95.11 263.5 93.96 263.5C93.02 263.5 92.33 262.87 92.33 261.85C92.33 260.95 93.05 259.75 94.35 259.75H94.38Z" fill="#7D7773"/>
<path d="M104.67 265.84C106.18 265.84 107.3 266.74 107.3 267.7C107.33 268.27 106.94 268.84 106.36 269.2C106.03 269.44 105.76 269.38 105.58 269.11C104.95 268.3 104.1 267.52 102.98 267.52C102.2 267.52 101.65 268.03 101.65 268.81C101.65 269.71 102.59 270.49 103.73 271.27C105.48 272.47 106.51 273.49 106.51 274.99C106.51 277.54 103.19 279.76 100.65 279.76C99.05 279.76 97.3 278.71 97.27 277.45C97.27 276.82 97.75 276.19 98.27 275.89C98.72 275.65 98.96 275.68 99.21 275.98C100.21 277.24 101.44 278.05 102.47 278.05C103.41 278.05 104.07 277.48 104.07 276.7C104.07 276.07 103.68 275.47 102.2 274.36C100.84 273.37 99.3 272.29 99.3 270.52C99.3 269.5 99.69 268.45 101.08 267.34C102.14 266.5 103.56 265.84 104.64 265.84H104.67Z" fill="#7D7773"/>
<path d="M117.86 267.58L114.99 267.7L113.36 275.5C113.06 276.88 113.21 277.27 113.51 277.27C113.96 277.27 115.32 276.37 116.08 275.65L116.53 276.37C115.44 277.81 112.88 279.76 111.22 279.76C110.25 279.76 109.62 278.77 110.31 275.59L112 267.7H109.83L109.68 267.4L110.49 266.35H112.3L112.96 263.56L116.04 261.49L116.37 261.73L115.31 266.35H118.69L117.86 267.58Z" fill="#7D7773"/>
<path d="M127.43 265.84C130.24 265.84 131.75 267.7 131.75 270.58C131.75 273.19 130.69 276.04 128.52 277.84C127.22 278.95 125.35 279.76 123.54 279.76C120.19 279.76 119.19 277.27 119.19 274.93C119.19 271.03 121.36 268.15 123.72 266.92C124.9 266.26 126.26 265.84 127.4 265.84H127.43ZM126.31 267.1C126.04 267.1 125.71 267.16 125.43 267.28C124.49 267.73 122.59 270.22 122.59 275.05C122.59 277.3 123.53 278.47 124.67 278.47C125.03 278.47 125.24 278.41 125.52 278.32C126.85 277.78 128.33 274.6 128.33 270.52C128.33 268.15 127.45 267.1 126.34 267.1H126.31Z" fill="#7D7773"/>
<path d="M139.38 270.7C140.86 267.94 142.49 265.84 143.76 265.84C144.3 265.84 144.85 266.17 145.15 266.62C145.48 267.1 145.42 267.73 145.06 268.27C144.73 268.81 144.43 269.14 144.09 269.41C143.82 269.59 143.58 269.62 143.37 269.41C143.01 269.05 142.59 268.87 142.22 268.87C141.92 268.87 141.56 269.05 140.92 269.92C140.17 270.94 139.38 272.35 139.05 273.37C138.63 275.11 138.17 277.39 137.87 279.13C136.9 279.25 135.73 279.49 134.91 279.73L134.67 279.49C135.42 276.34 136.15 273.04 136.75 269.83C136.93 268.87 136.93 268.48 136.69 268.48C136.42 268.48 135.39 269.08 134.76 269.68L134.31 268.9C136 267.16 137.99 265.84 139.02 265.84C139.86 265.84 140.05 266.98 139.56 269.32L139.26 270.7H139.38Z" fill="#7D7773"/>
<path d="M153.71 276.73C155.19 274.54 157.27 271.39 157.27 269.26C157.24 268.54 157 268.09 156.85 267.73C156.76 267.4 156.79 267.07 156.94 266.77C157.24 266.23 157.85 265.84 158.45 265.84C159.17 265.84 159.87 266.5 159.9 267.73C159.9 268.57 159.57 269.65 158.75 271.03C157.39 273.31 155.34 276.31 153.65 278.68C151.87 281.2 150.03 283.72 148.07 285.94L144.39 286.84L144.15 286.09C147.32 284.02 149.37 282.16 150.97 280.06C151 277.66 150.46 272.77 149.94 270.04C149.73 268.84 149.52 268.51 149.31 268.51C149.1 268.51 148.46 269.05 147.65 270.13L147.05 269.35C148.23 267.49 149.89 265.84 151.12 265.84C152.12 265.84 152.69 266.92 153.02 269.68C153.32 272.08 153.5 274.21 153.65 276.73H153.71Z" fill="#7D7773"/>
<path d="M204.53 276.37C202.63 278.65 200.46 279.76 199.52 279.76C198.86 279.76 198.28 279.34 198.8 276.79L199.22 274.75H199.13C198.04 276.28 196.84 277.45 195.84 278.29C194.9 279.07 193.73 279.76 192.76 279.76C191.7 279.76 190.77 278.56 190.77 276.19C190.77 273.28 192.13 270.19 194.21 268.39C195.63 267.13 198.07 265.84 200.34 265.84H200.37C200.97 265.84 201.61 265.93 202.27 266.05C202.87 266.17 203.36 266.23 203.81 266.26L203.96 266.38C203.39 268.72 202.57 272.23 201.94 275.86C201.76 276.79 201.82 277.09 202 277.09C202.27 277.09 203.33 276.34 204.08 275.59L204.53 276.37ZM198.83 267.28C198.17 267.28 197.65 267.43 197.2 267.76C195.24 269.17 194.18 272.83 194.18 275.53C194.18 276.79 194.45 277.33 194.9 277.33C195.99 277.33 198.91 273.82 199.58 272.38C199.97 271 200.49 268.63 200.64 267.7C200.25 267.46 199.49 267.28 198.86 267.28H198.83Z" fill="#7D7773"/>
<path d="M211.65 270.7C213.13 267.94 214.76 265.84 216.03 265.84C216.57 265.84 217.12 266.17 217.42 266.62C217.75 267.1 217.69 267.73 217.33 268.27C217 268.81 216.7 269.14 216.36 269.41C216.09 269.59 215.85 269.62 215.64 269.41C215.28 269.05 214.86 268.87 214.49 268.87C214.19 268.87 213.83 269.05 213.19 269.92C212.44 270.94 211.65 272.35 211.32 273.37C210.9 275.11 210.44 277.39 210.14 279.13C209.17 279.25 208 279.49 207.18 279.73L206.94 279.49C207.69 276.34 208.42 273.04 209.02 269.83C209.2 268.87 209.2 268.48 208.96 268.48C208.69 268.48 207.66 269.08 207.03 269.68L206.58 268.9C208.27 267.16 210.26 265.84 211.29 265.84C212.13 265.84 212.32 266.98 211.83 269.32L211.53 270.7H211.65Z" fill="#7D7773"/>
<path d="M227.92 267.58L225.05 267.7L223.42 275.5C223.12 276.88 223.27 277.27 223.57 277.27C224.02 277.27 225.38 276.37 226.14 275.65L226.59 276.37C225.5 277.81 222.94 279.76 221.28 279.76C220.31 279.76 219.68 278.77 220.37 275.59L222.06 267.7H219.89L219.74 267.4L220.55 266.35H222.36L223.02 263.56L226.1 261.49L226.43 261.73L225.37 266.35H228.75L227.92 267.58Z" fill="#7D7773"/>
<path d="M268.66 276.34C266.67 278.59 264.31 279.76 262.44 279.76C260.21 279.76 258.88 278.17 258.88 275.29C258.88 272.77 260 269.92 262.11 268.06C263.41 266.92 265.55 265.84 267.18 265.84C268.57 265.84 269.72 266.56 269.72 267.49C269.75 268.03 269.39 268.69 268.54 269.17C268.24 269.38 267.97 269.35 267.73 269.05C266.98 267.88 266.19 267.37 265.38 267.37C264.66 267.37 264.02 267.97 263.51 268.96C262.82 270.28 262.3 272.32 262.3 274.48C262.3 276.64 263.05 277.6 264.29 277.6C265.68 277.6 267.43 276.28 268.15 275.56L268.66 276.34Z" fill="#7D7773"/>
<path d="M285.8 276.52C283.87 278.71 281.94 279.76 280.91 279.76C280.03 279.76 279.7 278.86 280.22 276.67C280.4 275.92 280.55 275.23 280.67 274.51H280.64C278.83 276.88 277.05 278.35 275.93 279.04C275.21 279.52 274.42 279.76 273.73 279.76C272.85 279.76 271.77 279.19 272.61 275.59C273.09 273.61 273.55 271.63 274 269.62C274.21 268.72 274.18 268.51 274 268.39C273.76 268.39 272.91 269.02 272.07 269.68L271.71 268.84C273.58 267.04 275.6 265.84 276.63 265.84C277.45 265.84 277.69 266.53 277.17 268.75C276.66 270.94 276.14 273.19 275.63 275.35C275.33 276.76 275.48 277.27 275.93 277.27C277.41 277.27 280.25 273.64 281.06 272.14C281.48 270.4 281.91 268.54 282.3 266.65L285.17 265.84H285.56C284.78 268.93 283.99 272.17 283.3 275.83C283.12 276.82 283.15 277.09 283.36 277.09C283.6 277.09 284.6 276.46 285.35 275.71L285.8 276.52Z" fill="#7D7773"/>
<path d="M294.49 276.61C292.68 278.62 290.48 279.76 289.48 279.76C288.76 279.76 288.18 279.1 288.85 275.95C289.82 271.27 290.75 266.62 291.72 261.97C292.05 260.47 291.9 260.26 290.63 260.2L289.79 260.14L289.94 259.3C292.66 259.06 294.62 258.22 295.07 258.22C295.43 258.22 295.46 258.52 295.31 259.27C294.16 264.85 292.99 270.43 291.84 276.07C291.63 276.91 291.72 277.21 291.93 277.21C292.2 277.21 293.23 276.58 294.04 275.83L294.49 276.61Z" fill="#7D7773"/>
<path d="M305.2 267.58L302.33 267.7L300.7 275.5C300.4 276.88 300.55 277.27 300.85 277.27C301.3 277.27 302.66 276.37 303.42 275.65L303.87 276.37C302.78 277.81 300.22 279.76 298.56 279.76C297.59 279.76 296.96 278.77 297.65 275.59L299.34 267.7H297.17L297.02 267.4L297.83 266.35H299.64L300.3 263.56L303.38 261.49L303.71 261.73L302.65 266.35H306.03L305.2 267.58Z" fill="#7D7773"/>
<path d="M321.05 276.52C319.12 278.71 317.19 279.76 316.16 279.76C315.28 279.76 314.95 278.86 315.47 276.67C315.65 275.92 315.8 275.23 315.92 274.51H315.89C314.08 276.88 312.3 278.35 311.18 279.04C310.46 279.52 309.67 279.76 308.98 279.76C308.1 279.76 307.02 279.19 307.86 275.59C308.34 273.61 308.8 271.63 309.25 269.62C309.46 268.72 309.43 268.51 309.25 268.39C309.01 268.39 308.16 269.02 307.32 269.68L306.96 268.84C308.83 267.04 310.85 265.84 311.88 265.84C312.7 265.84 312.94 266.53 312.42 268.75C311.91 270.94 311.39 273.19 310.88 275.35C310.58 276.76 310.73 277.27 311.18 277.27C312.66 277.27 315.5 273.64 316.31 272.14C316.73 270.4 317.16 268.54 317.55 266.65L320.42 265.84H320.81C320.03 268.93 319.24 272.17 318.55 275.83C318.37 276.82 318.4 277.09 318.61 277.09C318.85 277.09 319.85 276.46 320.6 275.71L321.05 276.52Z" fill="#7D7773"/>
<path d="M328.53 270.7C330.01 267.94 331.64 265.84 332.91 265.84C333.45 265.84 334 266.17 334.3 266.62C334.63 267.1 334.57 267.73 334.21 268.27C333.88 268.81 333.58 269.14 333.24 269.41C332.97 269.59 332.73 269.62 332.52 269.41C332.16 269.05 331.73 268.87 331.37 268.87C331.07 268.87 330.71 269.05 330.07 269.92C329.32 270.94 328.53 272.35 328.2 273.37C327.78 275.11 327.32 277.39 327.02 279.13C326.05 279.25 324.88 279.49 324.06 279.73L323.82 279.49C324.57 276.34 325.3 273.04 325.9 269.83C326.08 268.87 326.08 268.48 325.84 268.48C325.57 268.48 324.54 269.08 323.91 269.68L323.46 268.9C325.15 267.16 327.14 265.84 328.17 265.84C329.02 265.84 329.2 266.98 328.71 269.32L328.41 270.7H328.53Z" fill="#7D7773"/>
<path d="M345.52 276.16C342.83 278.95 340.54 279.76 338.7 279.76C337.04 279.76 335.11 278.86 335.11 275.32C335.11 272.5 336.38 269.44 338.67 267.67C339.91 266.71 341.81 265.84 343.32 265.84C345.28 265.84 346.28 267.01 346.28 268.36C346.28 271.42 341.45 272.95 338.46 273.73C338.43 274.06 338.43 274.33 338.43 274.57C338.43 276.13 338.97 277.6 340.6 277.6C341.81 277.6 343.53 276.76 344.98 275.35L345.52 276.16ZM342.08 267.16C341.75 267.16 341.36 267.28 341.05 267.49C340.33 267.94 339 269.53 338.58 272.68C342.2 271.6 343.35 270.31 343.35 268.78C343.35 267.64 342.66 267.16 342.11 267.16H342.08Z" fill="#7D7773"/>
<path d="M173.75 273.49C175.136 273.49 176.26 272.371 176.26 270.99C176.26 269.609 175.136 268.49 173.75 268.49C172.364 268.49 171.24 269.609 171.24 270.99C171.24 272.371 172.364 273.49 173.75 273.49Z" fill="#7D7773"/>
<path d="M243.39 273.49C244.776 273.49 245.9 272.371 245.9 270.99C245.9 269.609 244.776 268.49 243.39 268.49C242.004 268.49 240.88 269.609 240.88 270.99C240.88 272.371 242.004 273.49 243.39 273.49Z" fill="#7D7773"/>
<path fill-rule="evenodd" clip-rule="evenodd" d="M47.4399 167.286V140.4H112.62V167.286H47.4399ZM120.7 176.32V140.4H295.04V176.32H303.13V176.314H341.726V205.18H334.817C334.875 204.598 334.904 203.998 334.904 203.38V200.52H330.39C334.904 200.52 334.904 200.518 334.904 200.516V200.511V200.5L334.904 200.477L334.903 200.419C334.903 200.375 334.901 200.321 334.899 200.257C334.895 200.131 334.887 199.966 334.873 199.769C334.845 199.375 334.791 198.843 334.687 198.215C334.481 196.982 334.062 195.269 333.178 193.501C332.285 191.716 330.875 189.793 328.675 188.326C326.448 186.841 323.68 186.006 320.39 186.006H96.79V190.52C96.79 186.006 96.7878 186.006 96.7855 186.006H96.7807L96.7704 186.006L96.747 186.006L96.6886 186.007C96.6446 186.007 96.5907 186.009 96.5273 186.011C96.4009 186.015 96.2362 186.023 96.0387 186.037C95.6453 186.065 95.1127 186.119 94.4854 186.223C93.2523 186.429 91.5391 186.848 89.7712 187.732C87.9857 188.625 86.0629 190.035 84.5965 192.235C83.1113 194.463 82.2758 197.23 82.2758 200.52V203.38H86.79C82.2758 203.38 82.2758 203.382 82.2758 203.385V203.389L82.2759 203.4L82.276 203.423L82.2767 203.482C82.2774 203.525 82.2787 203.579 82.2808 203.643C82.285 203.769 82.2927 203.934 82.3068 204.131C82.3271 204.414 82.3607 204.769 82.4169 205.18H74.6441V176.314H112.62V176.32H120.7ZM303.13 167.286H368.46V140.4H303.13V167.286ZM47.4399 176.314V205.18H65.6157V176.314H47.4399ZM350.754 205.18H368.46V176.314H350.754V205.18Z" fill="#A75869"/>
</svg>