<svg width="293" height="206" viewBox="0 0 293 206" fill="none" xmlns="http://www.w3.org/2000/svg">
<path d="M6.03369 91.0776C6.03369 113.605 25.738 132.232 34.4619 139.373C35.7155 140.394 36.3423 140.914 37.2755 141.174C37.9998 141.378 39.0676 141.378 39.7919 141.174C40.7251 140.914 41.3519 140.399 42.6055 139.373C51.3294 132.232 71.0337 113.605 71.0337 91.0776C71.0258 86.8487 70.1807 82.6633 68.5471 78.7626C66.9135 74.862 64.5238 71.3233 61.5158 68.3508C55.3924 62.3107 47.1349 58.9276 38.5337 58.9351C29.9325 58.9276 21.675 62.3107 15.5515 68.3508C12.5394 71.3202 10.147 74.8582 8.51314 78.7596C6.87927 82.661 6.03648 86.848 6.03369 91.0776Z" stroke="#2D3A5A" stroke-width="11" stroke-linecap="round" stroke-linejoin="round"/>
<path d="M29.248 86.7923C29.248 89.255 30.2264 91.6168 31.9678 93.3582C33.7092 95.0997 36.071 96.078 38.5338 96.078C40.9965 96.078 43.3583 95.0997 45.0998 93.3582C46.8412 91.6168 47.8195 89.255 47.8195 86.7923C47.8195 84.3295 46.8412 81.9677 45.0998 80.2263C43.3583 78.4849 40.9965 77.5065 38.5338 77.5065C36.071 77.5065 33.7092 78.4849 31.9678 80.2263C30.2264 81.9677 29.248 84.3295 29.248 86.7923Z" stroke="#2D3A5A" stroke-width="10" stroke-linecap="round" stroke-linejoin="round"/>
<circle cx="135.534" cy="100.435" r="9.5" fill="#292935"/>
<path fill-rule="evenodd" clip-rule="evenodd" d="M203.134 1.83095C193.588 0.106125 183.239 -0.453256 172.91 0.380717L174.677 18.2959C183.085 17.6408 191.269 18.0892 198.663 19.3225L203.134 1.83095ZM212.238 22.7448C216.539 24.2564 220.256 26.0538 223.188 28.0244C206.057 34.1775 190.506 44.6764 180.678 62.2568C170.175 81.044 171.249 98.6713 177.988 112.376C184.468 125.556 196.142 134.995 206.924 138.262C218.189 141.676 232.266 139.053 243.867 131.666C255.8 124.069 265.789 111.059 268.44 92.793C270.874 76.0289 269.475 60.9463 263.518 47.4434C262.175 44.3975 260.617 41.4718 258.852 38.6585C266.986 37.8125 275.312 37.5001 283.534 37.5001V19.5001C271.205 19.5001 257.986 20.1584 245.086 22.3852C241.606 19.2101 237.781 16.2065 233.627 13.3556C228.913 10.1204 223.156 7.3861 216.71 5.25068L212.238 22.7448ZM129.764 13.6223C138.915 8.1156 148.952 4.48849 159.038 2.37436L160.817 20.408C153.303 22.151 146.11 24.8743 139.61 28.7101L129.764 13.6223ZM128.407 37.1596L118.431 21.873C112.159 27.3666 106.613 34.0453 102.164 42.0715C100.64 44.8193 99.3482 47.6194 98.2617 50.4586L115.252 56.4128C116.01 54.5021 116.891 52.63 117.906 50.7988C120.806 45.5686 124.356 41.0398 128.407 37.1596ZM94.3181 95.6291C93.069 85.2406 92.7616 74.4996 94.5773 64.0023L111.844 70.0531C110.868 77.8692 111.256 86.1586 112.385 94.7984L94.3181 95.6291ZM96.4984 109.544C97.4485 114.619 98.5039 119.532 99.5072 124.202L99.5471 124.388L99.7674 125.413C100.781 130.13 101.742 134.601 102.56 138.838L120.951 139.285C119.963 133.693 118.742 128.022 117.543 122.454C117.41 121.837 117.278 121.222 117.146 120.608C116.283 116.593 115.448 112.623 114.69 108.707L96.4984 109.544ZM104.716 152.894L122.817 153.334C122.923 154.733 122.998 156.117 123.038 157.48C123.377 169.204 121.14 181.228 111.838 190.358C110.799 191.378 109.744 192.341 108.674 193.248L99.0377 177.699C99.1017 177.637 99.1656 177.575 99.2295 177.512C103.427 173.392 105.316 167.353 105.045 158C104.997 156.346 104.885 154.645 104.716 152.894ZM87.2493 185.254C80.146 187.87 72.7737 187.577 66.3113 185.057L59.138 201.584C70.7513 206.402 84.2646 206.722 96.9092 200.841L87.2493 185.254ZM54.6037 176.869L47.015 194.353C36.2514 185.617 29.0344 172.224 29.0347 156.435L47.0347 156.435C47.0346 164.548 49.9531 171.588 54.6037 176.869ZM232.085 44.0059C234.363 43.2692 236.694 42.6092 239.067 42.0191C242.462 46.06 245.096 50.2791 247.049 54.7079C251.343 64.4419 252.694 75.9712 250.627 90.2072C248.779 102.941 242.018 111.505 234.2 116.482C226.052 121.67 217.378 122.621 212.144 121.035C206.425 119.302 198.557 113.417 194.141 104.434C189.983 95.9773 188.807 84.6045 196.389 71.0401C204.008 57.4118 216.55 49.0286 232.085 44.0059Z" fill="#2D3A5A"/>
</svg>
