<svg width="169" height="54" viewBox="0 0 169 54" fill="none" xmlns="http://www.w3.org/2000/svg">
<path d="M42.4844 40.4971V31.7272H46.7202V47H42.6534V44.2258H42.4943C42.1496 45.1207 41.5762 45.8399 40.7741 46.3835C39.9787 46.9271 39.0076 47.1988 37.8608 47.1988C36.84 47.1988 35.9418 46.9668 35.1662 46.5028C34.3906 46.0388 33.7841 45.3792 33.3466 44.5241C32.9157 43.669 32.697 42.6449 32.6903 41.4517V31.7272H36.9261V40.696C36.9328 41.5975 37.1747 42.3101 37.652 42.8338C38.1293 43.3575 38.7689 43.6193 39.571 43.6193C40.0814 43.6193 40.5587 43.5033 41.0028 43.2713C41.447 43.0326 41.8049 42.6813 42.0767 42.2173C42.3551 41.7533 42.491 41.1799 42.4844 40.4971ZM50.1083 47V31.7272H54.1452V34.4219H54.3242C54.6424 33.527 55.1727 32.821 55.9151 32.304C56.6576 31.7869 57.5458 31.5284 58.5799 31.5284C59.6272 31.5284 60.5188 31.7902 61.2546 32.3139C61.9904 32.8309 62.4809 33.5336 62.7262 34.4219H62.8853C63.1969 33.5469 63.7603 32.8475 64.5756 32.3238C65.3976 31.7935 66.3687 31.5284 67.489 31.5284C68.9142 31.5284 70.0709 31.9825 70.9592 32.8906C71.854 33.7921 72.3015 35.0715 72.3015 36.7287V47H68.0756V37.5639C68.0756 36.7154 67.8503 36.079 67.3995 35.6548C66.9487 35.2306 66.3853 35.0184 65.7092 35.0184C64.9402 35.0184 64.3403 35.2637 63.9094 35.7542C63.4786 36.2381 63.2631 36.8778 63.2631 37.6733V47H59.1566V37.4744C59.1566 36.7254 58.9412 36.1288 58.5103 35.6846C58.0861 35.2405 57.5259 35.0184 56.8299 35.0184C56.3593 35.0184 55.935 35.1378 55.5572 35.3764C55.186 35.6084 54.891 35.9365 54.6722 36.3608C54.4535 36.7784 54.3441 37.2689 54.3441 37.8324V47H50.1083ZM75.7269 47V26.6363H79.9627V34.2926H80.092C80.2776 33.8816 80.546 33.464 80.8974 33.0397C81.2553 32.6089 81.7193 32.2509 82.2894 31.9659C82.8661 31.6742 83.582 31.5284 84.4371 31.5284C85.5508 31.5284 86.5782 31.8201 87.5195 32.4034C88.4608 32.9801 89.2132 33.8518 89.7766 35.0184C90.3401 36.1785 90.6218 37.6335 90.6218 39.3835C90.6218 41.0871 90.3467 42.5255 89.7965 43.6988C89.253 44.8655 88.5105 45.7505 87.5692 46.3537C86.6346 46.9503 85.5872 47.2486 84.4272 47.2486C83.6052 47.2486 82.9059 47.1127 82.3292 46.8409C81.7591 46.5691 81.2918 46.2277 80.9272 45.8167C80.5626 45.3991 80.2842 44.9782 80.092 44.554H79.9031V47H75.7269ZM79.8732 39.3636C79.8732 40.2718 79.9992 41.0639 80.2511 41.74C80.503 42.4162 80.8675 42.9432 81.3448 43.321C81.8221 43.6922 82.4021 43.8778 83.0849 43.8778C83.7743 43.8778 84.3576 43.6889 84.8349 43.3111C85.3121 42.9266 85.6734 42.3963 85.9187 41.7201C86.1706 41.0374 86.2965 40.2519 86.2965 39.3636C86.2965 38.482 86.1739 37.7064 85.9286 37.0369C85.6834 36.3674 85.3221 35.8437 84.8448 35.4659C84.3675 35.088 83.7809 34.8991 83.0849 34.8991C82.3955 34.8991 81.8121 35.0814 81.3349 35.446C80.8642 35.8106 80.503 36.3276 80.2511 36.9971C79.9992 37.6666 79.8732 38.4555 79.8732 39.3636ZM100.349 47.2983C98.8042 47.2983 97.4685 46.9701 96.3416 46.3139C95.2214 45.651 94.3563 44.7296 93.7464 43.5497C93.1366 42.3631 92.8317 40.9877 92.8317 39.4233C92.8317 37.8456 93.1366 36.4668 93.7464 35.2869C94.3563 34.1004 95.2214 33.179 96.3416 32.5227C97.4685 31.8598 98.8042 31.5284 100.349 31.5284C101.893 31.5284 103.226 31.8598 104.346 32.5227C105.473 33.179 106.341 34.1004 106.951 35.2869C107.561 36.4668 107.866 37.8456 107.866 39.4233C107.866 40.9877 107.561 42.3631 106.951 43.5497C106.341 44.7296 105.473 45.651 104.346 46.3139C103.226 46.9701 101.893 47.2983 100.349 47.2983ZM100.369 44.017C101.071 44.017 101.658 43.8182 102.129 43.4204C102.599 43.0161 102.954 42.4659 103.192 41.7699C103.438 41.0738 103.56 40.2817 103.56 39.3934C103.56 38.5052 103.438 37.713 103.192 37.017C102.954 36.321 102.599 35.7708 102.129 35.3665C101.658 34.9621 101.071 34.7599 100.369 34.7599C99.6593 34.7599 99.0627 34.9621 98.5788 35.3665C98.1016 35.7708 97.7403 36.321 97.495 37.017C97.2564 37.713 97.1371 38.5052 97.1371 39.3934C97.1371 40.2817 97.2564 41.0738 97.495 41.7699C97.7403 42.4659 98.1016 43.0161 98.5788 43.4204C99.0627 43.8182 99.6593 44.017 100.369 44.017ZM110.7 26.6363H116.009L121.617 40.3182H121.856L127.464 26.6363H132.773V47H128.597V33.7457H128.428L123.158 46.9005H120.315L115.045 33.696H114.876V47H110.7V26.6363ZM140.596 47.2883C139.622 47.2883 138.753 47.1193 137.991 46.7812C137.229 46.4365 136.626 45.9294 136.181 45.2599C135.744 44.5838 135.525 43.7419 135.525 42.7344C135.525 41.8859 135.681 41.1733 135.993 40.5966C136.304 40.0199 136.728 39.5558 137.265 39.2045C137.802 38.8532 138.412 38.588 139.095 38.4091C139.784 38.2301 140.507 38.1041 141.262 38.0312C142.151 37.9384 142.867 37.8522 143.41 37.7727C143.954 37.6865 144.348 37.5606 144.593 37.3949C144.839 37.2291 144.961 36.9839 144.961 36.6591V36.5994C144.961 35.9697 144.762 35.4825 144.365 35.1378C143.974 34.7931 143.417 34.6207 142.694 34.6207C141.932 34.6207 141.325 34.7897 140.875 35.1278C140.424 35.4593 140.126 35.8769 139.98 36.3807L136.062 36.0625C136.261 35.1344 136.652 34.3324 137.235 33.6562C137.819 32.9735 138.571 32.4498 139.493 32.0852C140.421 31.714 141.494 31.5284 142.714 31.5284C143.563 31.5284 144.375 31.6278 145.15 31.8267C145.932 32.0255 146.625 32.3338 147.228 32.7514C147.838 33.169 148.319 33.7059 148.67 34.3622C149.021 35.0118 149.197 35.7907 149.197 36.6988V47H145.18V44.8821H145.061C144.815 45.3594 144.487 45.7803 144.076 46.1449C143.665 46.5028 143.172 46.7845 142.595 46.99C142.018 47.1889 141.352 47.2883 140.596 47.2883ZM141.809 44.365C142.432 44.365 142.983 44.2424 143.46 43.9971C143.937 43.7452 144.312 43.4072 144.583 42.9829C144.855 42.5587 144.991 42.0781 144.991 41.5412V39.9204C144.859 40.0066 144.676 40.0862 144.444 40.1591C144.219 40.2254 143.964 40.2883 143.679 40.348C143.394 40.401 143.109 40.4507 142.824 40.4971C142.538 40.5369 142.28 40.5734 142.048 40.6065C141.551 40.6794 141.117 40.7954 140.745 40.9545C140.374 41.1136 140.086 41.329 139.88 41.6008C139.675 41.866 139.572 42.1974 139.572 42.5951C139.572 43.1719 139.781 43.6127 140.199 43.9176C140.623 44.2159 141.16 44.365 141.809 44.365ZM152.483 52.7273V31.7272H156.659V34.2926H156.848C157.034 33.8816 157.302 33.464 157.654 33.0397C158.012 32.6089 158.476 32.2509 159.046 31.9659C159.623 31.6742 160.338 31.5284 161.194 31.5284C162.307 31.5284 163.335 31.8201 164.276 32.4034C165.217 32.9801 165.97 33.8518 166.533 35.0184C167.096 36.1785 167.378 37.6335 167.378 39.3835C167.378 41.0871 167.103 42.5255 166.553 43.6988C166.009 44.8655 165.267 45.7505 164.326 46.3537C163.391 46.9503 162.344 47.2486 161.184 47.2486C160.362 47.2486 159.662 47.1127 159.086 46.8409C158.516 46.5691 158.048 46.2277 157.684 45.8167C157.319 45.3991 157.041 44.9782 156.848 44.554H156.719V52.7273H152.483ZM156.63 39.3636C156.63 40.2718 156.756 41.0639 157.007 41.74C157.259 42.4162 157.624 42.9432 158.101 43.321C158.578 43.6922 159.158 43.8778 159.841 43.8778C160.531 43.8778 161.114 43.6889 161.591 43.3111C162.069 42.9266 162.43 42.3963 162.675 41.7201C162.927 41.0374 163.053 40.2519 163.053 39.3636C163.053 38.482 162.93 37.7064 162.685 37.0369C162.44 36.3674 162.078 35.8437 161.601 35.4659C161.124 35.088 160.537 34.8991 159.841 34.8991C159.152 34.8991 158.569 35.0814 158.091 35.446C157.621 35.8106 157.259 36.3276 157.007 36.9971C156.756 37.6666 156.63 38.4555 156.63 39.3636Z" fill="white"/>
<path d="M2.94918 27.4782C3.66985 31.8858 8.12104 34.9 10.0564 36.018C10.3343 36.1777 10.4736 36.2594 10.6645 36.2804C10.8127 36.2972 11.0217 36.2631 11.1569 36.1999C11.3311 36.1192 11.4373 35.9983 11.6497 35.7575C13.1282 34.0813 16.3876 29.8064 15.6669 25.3988C15.5301 24.5716 15.2308 23.7797 14.7864 23.0688C14.342 22.3578 13.7612 21.7419 13.0776 21.2566C11.6863 20.2707 9.9624 19.8729 8.27976 20.1496C6.59664 20.4232 5.08922 21.3493 4.08436 22.727C3.59001 23.4044 3.2351 24.1731 3.04023 24.9887C2.84536 25.8043 2.81441 26.6505 2.94918 27.4782Z" stroke="#B2DFFF" stroke-width="2.18081" stroke-linecap="round" stroke-linejoin="round"/>
<path d="M7.35419 25.8971C7.43298 26.3789 7.69995 26.8098 8.09638 27.0948C8.49281 27.3798 8.98622 27.4956 9.46807 27.4169C9.94992 27.3381 10.3807 27.0711 10.6657 26.6747C10.9508 26.2782 11.0666 25.7848 10.9878 25.303C10.909 24.8211 10.6421 24.3903 10.2456 24.1053C9.84921 23.8203 9.3558 23.7044 8.87395 23.7832C8.3921 23.862 7.96128 24.129 7.67627 24.5254C7.39126 24.9218 7.2754 25.4152 7.35419 25.8971Z" stroke="#B2DFFF" stroke-width="1.98255" stroke-linecap="round" stroke-linejoin="round"/>
<circle cx="28.587" cy="25.1662" r="1.88343" transform="rotate(-9.28604 28.587 25.1662)" fill="#EBF4FF"/>
<path fill-rule="evenodd" clip-rule="evenodd" d="M38.6582 3.71094C36.7352 3.67885 34.6926 3.90044 32.6982 4.39405L33.6171 7.84276C35.2412 7.44563 36.8569 7.27155 38.343 7.27633L38.6582 3.71094ZM41.1086 7.51167C41.9983 7.66983 42.783 7.90258 43.4196 8.19434C40.2647 9.94627 37.5579 12.4979 36.1974 16.2521C34.7435 20.2639 35.5176 23.6785 37.2744 26.1444C38.9639 28.5158 41.5501 29.9891 43.7641 30.2834C46.0775 30.5909 48.7477 29.6274 50.7814 27.811C52.873 25.9429 54.4112 23.0778 54.3457 19.4191C54.2855 16.0612 53.5292 13.155 51.9319 10.7036C51.5715 10.1506 51.1731 9.62801 50.7377 9.13405C52.3021 8.7083 53.9213 8.38079 55.5299 8.11778L54.9541 4.59595C52.5418 4.99036 49.9766 5.54205 47.5239 6.39043C46.7413 5.88053 45.8968 5.41522 44.9928 4.99033C43.967 4.50816 42.7533 4.15735 41.4238 3.94575L41.1086 7.51167ZM24.6799 8.36511C26.2943 6.99494 28.1421 5.96417 30.048 5.22786L30.9729 8.69935C29.5585 9.28076 28.2382 10.0437 27.0891 11.0022L24.6799 8.36511ZM25.1673 13.0138L22.7265 10.342C21.6751 11.6175 20.8036 13.1017 20.1898 14.8145C19.9796 15.4008 19.8164 15.99 19.6946 16.5803L23.2095 17.2018C23.2966 16.8036 23.4091 16.4092 23.5491 16.0184C23.9491 14.9023 24.4988 13.9026 25.1673 13.0138ZM20.3681 25.5444C19.7914 23.5518 19.3876 21.4601 19.4071 19.3481L22.9789 19.9796C23.038 21.5401 23.3792 23.1496 23.8765 24.8039L20.3681 25.5444ZM21.2399 28.1972C21.5881 29.1598 21.9518 30.0872 22.2975 30.9689L22.3112 31.004L22.3871 31.1976L22.3872 31.1976C22.7364 32.0881 23.0674 32.9321 23.3631 33.7348L26.9756 33.2339C26.6034 32.1716 26.183 31.101 25.7704 30.05L25.7704 30.0499L25.7704 30.0499L25.6336 29.7013C25.3364 28.9435 25.0459 28.1934 24.7725 27.4515L21.2399 28.1972ZM24.2345 36.4161L27.7901 35.9231C27.8557 36.1935 27.9147 36.4617 27.966 36.7271C28.4074 39.0103 28.3545 41.4344 26.8265 43.5184C26.6558 43.7511 26.4802 43.9733 26.2999 44.185L23.917 41.451L23.9486 41.4082C24.6381 40.4679 24.8144 39.2259 24.4623 37.4045C24.4 37.0826 24.3235 36.7533 24.2345 36.4161ZM21.8522 43.3063C20.5462 44.0454 19.0945 44.2238 17.7496 43.9377L16.8748 47.4008C19.301 47.9718 21.9551 47.6021 24.2409 46.047L21.8522 43.3063ZM15.1969 42.7102L14.2714 46.3738C11.8859 45.0089 10.0453 42.6194 9.54018 39.53L13.062 38.9542C13.3215 40.5416 14.1179 41.8258 15.1969 42.7102ZM45.6716 11.0366C46.0939 10.8196 46.5288 10.6159 46.9743 10.4245C47.7677 11.1065 48.4181 11.8478 48.942 12.6518C50.0935 14.419 50.7265 16.6315 50.7776 19.483C50.8233 22.0337 49.7745 23.9256 48.4042 25.1495C46.9759 26.4252 45.3092 26.8888 44.2343 26.7459C43.06 26.5898 41.3323 25.6899 40.1808 24.0737C39.0967 22.5521 38.5028 20.3645 39.5525 17.468C40.6072 14.5578 42.7929 12.5163 45.6716 11.0366Z" fill="#EBF4FF"/>
</svg>
