<svg width="170" height="54" viewBox="0 0 170 54" fill="none" xmlns="http://www.w3.org/2000/svg">
<path d="M43.4507 40.4971V31.7272H47.6865V47H43.6197V44.2258H43.4606C43.1159 45.1207 42.5425 45.8399 41.7405 46.3835C40.945 46.9271 39.9739 47.1988 38.8271 47.1988C37.8063 47.1988 36.9081 46.9668 36.1325 46.5028C35.3569 46.0388 34.7504 45.3792 34.3129 44.5241C33.882 43.669 33.6633 42.6449 33.6566 41.4517V31.7272H37.8924V40.696C37.8991 41.5975 38.141 42.3101 38.6183 42.8338C39.0956 43.3575 39.7352 43.6193 40.5373 43.6193C41.0477 43.6193 41.525 43.5033 41.9692 43.2713C42.4133 43.0326 42.7712 42.6813 43.043 42.2173C43.3214 41.7533 43.4573 41.1799 43.4507 40.4971ZM51.0746 47V31.7272H55.1116V34.4218H55.2905C55.6087 33.527 56.139 32.821 56.8814 32.3039C57.6239 31.7869 58.5121 31.5284 59.5462 31.5284C60.5936 31.5284 61.4851 31.7902 62.2209 32.3139C62.9567 32.8309 63.4473 33.5336 63.6925 34.4218H63.8516C64.1632 33.5468 64.7266 32.8475 65.5419 32.3238C66.3639 31.7935 67.335 31.5284 68.4553 31.5284C69.8805 31.5284 71.0372 31.9825 71.9255 32.8906C72.8204 33.7921 73.2678 35.0715 73.2678 36.7287V47H69.0419V37.5639C69.0419 36.7154 68.8166 36.079 68.3658 35.6548C67.9151 35.2306 67.3516 35.0184 66.6755 35.0184C65.9065 35.0184 65.3066 35.2637 64.8758 35.7542C64.4449 36.2381 64.2294 36.8778 64.2294 37.6733V47H60.1229V37.4744C60.1229 36.7253 59.9075 36.1288 59.4766 35.6846C59.0524 35.2405 58.4922 35.0184 57.7962 35.0184C57.3256 35.0184 56.9013 35.1378 56.5235 35.3764C56.1523 35.6084 55.8573 35.9365 55.6385 36.3608C55.4198 36.7784 55.3104 37.2689 55.3104 37.8324V47H51.0746ZM76.6932 47V26.6363H80.929V34.2926H81.0583C81.2439 33.8816 81.5124 33.464 81.8637 33.0397C82.2216 32.6089 82.6857 32.2509 83.2557 31.9659C83.8324 31.6742 84.5483 31.5284 85.4035 31.5284C86.5171 31.5284 87.5446 31.82 88.4858 32.4034C89.4271 32.9801 90.1795 33.8518 90.7429 35.0184C91.3064 36.1785 91.5881 37.6335 91.5881 39.3835C91.5881 41.0871 91.313 42.5255 90.7628 43.6988C90.2193 44.8655 89.4768 45.7504 88.5356 46.3537C87.6009 46.9503 86.5535 47.2485 85.3935 47.2485C84.5715 47.2485 83.8722 47.1127 83.2955 46.8409C82.7254 46.5691 82.2581 46.2277 81.8935 45.8167C81.5289 45.3991 81.2505 44.9782 81.0583 44.5539H80.8694V47H76.6932ZM80.8395 39.3636C80.8395 40.2717 80.9655 41.0639 81.2174 41.74C81.4693 42.4162 81.8339 42.9432 82.3111 43.321C82.7884 43.6922 83.3684 43.8778 84.0512 43.8778C84.7406 43.8778 85.3239 43.6889 85.8012 43.311C86.2785 42.9266 86.6397 42.3963 86.885 41.7201C87.1369 41.0374 87.2628 40.2519 87.2628 39.3636C87.2628 38.482 87.1402 37.7064 86.8949 37.0369C86.6497 36.3674 86.2884 35.8437 85.8111 35.4659C85.3339 35.088 84.7472 34.8991 84.0512 34.8991C83.3618 34.8991 82.7785 35.0814 82.3012 35.446C81.8305 35.8106 81.4693 36.3276 81.2174 36.9971C80.9655 37.6666 80.8395 38.4555 80.8395 39.3636ZM101.315 47.2983C99.7705 47.2983 98.4348 46.9701 97.3079 46.3139C96.1877 45.651 95.3226 44.7296 94.7128 43.5497C94.1029 42.3631 93.798 40.9877 93.798 39.4233C93.798 37.8456 94.1029 36.4668 94.7128 35.2869C95.3226 34.1003 96.1877 33.1789 97.3079 32.5227C98.4348 31.8598 99.7705 31.5284 101.315 31.5284C102.86 31.5284 104.192 31.8598 105.312 32.5227C106.439 33.1789 107.307 34.1003 107.917 35.2869C108.527 36.4668 108.832 37.8456 108.832 39.4233C108.832 40.9877 108.527 42.3631 107.917 43.5497C107.307 44.7296 106.439 45.651 105.312 46.3139C104.192 46.9701 102.86 47.2983 101.315 47.2983ZM101.335 44.017C102.038 44.017 102.624 43.8182 103.095 43.4204C103.566 43.0161 103.92 42.4659 104.159 41.7699C104.404 41.0738 104.527 40.2817 104.527 39.3934C104.527 38.5052 104.404 37.713 104.159 37.017C103.92 36.321 103.566 35.7708 103.095 35.3664C102.624 34.9621 102.038 34.7599 101.335 34.7599C100.626 34.7599 100.029 34.9621 99.5451 35.3664C99.0679 35.7708 98.7066 36.321 98.4613 37.017C98.2227 37.713 98.1034 38.5052 98.1034 39.3934C98.1034 40.2817 98.2227 41.0738 98.4613 41.7699C98.7066 42.4659 99.0679 43.0161 99.5451 43.4204C100.029 43.8182 100.626 44.017 101.335 44.017ZM111.666 26.6363H116.976L122.583 40.3182H122.822L128.43 26.6363H133.74V47H129.564V33.7457H129.395L124.125 46.9005H121.281L116.011 33.696H115.842V47H111.666V26.6363ZM141.563 47.2883C140.588 47.2883 139.72 47.1193 138.957 46.7812C138.195 46.4365 137.592 45.9294 137.148 45.2599C136.71 44.5838 136.492 43.7419 136.492 42.7343C136.492 41.8859 136.647 41.1733 136.959 40.5966C137.27 40.0199 137.695 39.5558 138.232 39.2045C138.769 38.8532 139.378 38.588 140.061 38.4091C140.751 38.2301 141.473 38.1041 142.229 38.0312C143.117 37.9384 143.833 37.8522 144.376 37.7727C144.92 37.6865 145.314 37.5606 145.56 37.3949C145.805 37.2291 145.928 36.9839 145.928 36.6591V36.5994C145.928 35.9697 145.729 35.4825 145.331 35.1378C144.94 34.7931 144.383 34.6207 143.661 34.6207C142.898 34.6207 142.292 34.7897 141.841 35.1278C141.39 35.4592 141.092 35.8769 140.946 36.3807L137.028 36.0625C137.227 35.1344 137.618 34.3324 138.202 33.6562C138.785 32.9735 139.537 32.4498 140.459 32.0852C141.387 31.714 142.461 31.5284 143.68 31.5284C144.529 31.5284 145.341 31.6278 146.117 31.8267C146.899 32.0255 147.591 32.3338 148.195 32.7514C148.804 33.169 149.285 33.7059 149.636 34.3622C149.988 35.0118 150.163 35.7907 150.163 36.6988V47H146.146V44.8821H146.027C145.782 45.3593 145.454 45.7803 145.043 46.1449C144.632 46.5028 144.138 46.7845 143.561 46.99C142.984 47.1889 142.318 47.2883 141.563 47.2883ZM142.776 44.365C143.399 44.365 143.949 44.2424 144.426 43.9971C144.903 43.7452 145.278 43.4072 145.55 42.9829C145.822 42.5587 145.957 42.0781 145.957 41.5412V39.9204C145.825 40.0066 145.643 40.0861 145.411 40.1591C145.185 40.2253 144.93 40.2883 144.645 40.348C144.36 40.401 144.075 40.4507 143.79 40.4971C143.505 40.5369 143.246 40.5734 143.014 40.6065C142.517 40.6794 142.083 40.7954 141.712 40.9545C141.34 41.1136 141.052 41.329 140.847 41.6008C140.641 41.866 140.538 42.1974 140.538 42.5951C140.538 43.1718 140.747 43.6127 141.165 43.9176C141.589 44.2159 142.126 44.365 142.776 44.365ZM153.45 52.7272V31.7272H157.626V34.2926H157.815C158 33.8816 158.269 33.464 158.62 33.0397C158.978 32.6089 159.442 32.2509 160.012 31.9659C160.589 31.6742 161.305 31.5284 162.16 31.5284C163.273 31.5284 164.301 31.82 165.242 32.4034C166.184 32.9801 166.936 33.8518 167.499 35.0184C168.063 36.1785 168.345 37.6335 168.345 39.3835C168.345 41.0871 168.069 42.5255 167.519 43.6988C166.976 44.8655 166.233 45.7504 165.292 46.3537C164.357 46.9503 163.31 47.2485 162.15 47.2485C161.328 47.2485 160.629 47.1127 160.052 46.8409C159.482 46.5691 159.014 46.2277 158.65 45.8167C158.285 45.3991 158.007 44.9782 157.815 44.5539H157.685V52.7272H153.45ZM157.596 39.3636C157.596 40.2717 157.722 41.0639 157.974 41.74C158.226 42.4162 158.59 42.9432 159.068 43.321C159.545 43.6922 160.125 43.8778 160.808 43.8778C161.497 43.8778 162.08 43.6889 162.558 43.311C163.035 42.9266 163.396 42.3963 163.641 41.7201C163.893 41.0374 164.019 40.2519 164.019 39.3636C164.019 38.482 163.897 37.7064 163.651 37.0369C163.406 36.3674 163.045 35.8437 162.568 35.4659C162.09 35.088 161.504 34.8991 160.808 34.8991C160.118 34.8991 159.535 35.0814 159.058 35.446C158.587 35.8106 158.226 36.3276 157.974 36.9971C157.722 37.6666 157.596 38.4555 157.596 39.3636Z" fill="#2D3A5A"/>
<path d="M3.91548 27.4782C4.63615 31.8858 9.08734 34.9 11.0227 36.018C11.3006 36.1777 11.4399 36.2594 11.6308 36.2805C11.7791 36.2973 11.988 36.2631 12.1232 36.2C12.2974 36.1192 12.4036 35.9983 12.616 35.7575C14.0945 34.0813 17.3539 29.8064 16.6332 25.3988C16.4964 24.5716 16.1971 23.7797 15.7527 23.0688C15.3083 22.3579 14.7275 21.7419 14.0439 21.2566C12.6526 20.2707 10.9287 19.8729 9.24607 20.1496C7.56294 20.4232 6.05553 21.3493 5.05067 22.727C4.55631 23.4044 4.20141 24.1732 4.00654 24.9888C3.81167 25.8044 3.78072 26.6505 3.91548 27.4782Z" stroke="#2D3A5A" stroke-width="2.18081" stroke-linecap="round" stroke-linejoin="round"/>
<path d="M8.3205 25.8971C8.39928 26.379 8.66626 26.8098 9.06269 27.0948C9.45912 27.3798 9.95253 27.4957 10.4344 27.4169C10.9162 27.3381 11.347 27.0711 11.6321 26.6747C11.9171 26.2782 12.0329 25.7848 11.9541 25.303C11.8753 24.8211 11.6084 24.3903 11.2119 24.1053C10.8155 23.8203 10.3221 23.7044 9.84026 23.7832C9.35841 23.862 8.92759 24.129 8.64258 24.5254C8.35757 24.9218 8.24171 25.4153 8.3205 25.8971Z" stroke="#2D3A5A" stroke-width="1.98255" stroke-linecap="round" stroke-linejoin="round"/>
<circle cx="29.5533" cy="25.1662" r="1.88343" transform="rotate(-9.28604 29.5533 25.1662)" fill="#2D3A5A"/>
<path fill-rule="evenodd" clip-rule="evenodd" d="M39.6245 3.71093C37.7015 3.67884 35.6589 3.90044 33.6645 4.39404L34.5834 7.84275C36.2075 7.44562 37.8232 7.27154 39.3093 7.27632L39.6245 3.71093ZM42.0749 7.51166C42.9647 7.66982 43.7493 7.90258 44.3859 8.19433C41.231 9.94626 38.5242 12.4979 37.1637 16.2521C35.7098 20.2639 36.4839 23.6785 38.2407 26.1444C39.9302 28.5158 42.5164 29.989 44.7304 30.2834C47.0438 30.5909 49.714 29.6274 51.7477 27.811C53.8393 25.9429 55.3775 23.0778 55.312 19.4191C55.2518 16.0612 54.4955 13.155 52.8982 10.7036C52.5379 10.1506 52.1394 9.628 51.704 9.13404C53.2684 8.70829 54.8876 8.38078 56.4962 8.11777L55.9204 4.59594C53.5081 4.99035 50.9429 5.54204 48.4902 6.39042C47.7076 5.88052 46.8631 5.41521 45.9591 4.99032C44.9333 4.50816 43.7196 4.15734 42.3901 3.94574L42.0749 7.51166ZM25.6462 8.36511C27.2606 6.99493 29.1084 5.96416 31.0143 5.22785L31.9392 8.69935C30.5248 9.28076 29.2045 10.0437 28.0554 11.0022L25.6462 8.36511ZM26.1337 13.0138L23.6928 10.342C22.6414 11.6175 21.7699 13.1017 21.1561 14.8144C20.9459 15.4008 20.7827 15.99 20.661 16.5803L24.1758 17.2017C24.263 16.8036 24.3754 16.4092 24.5154 16.0184C24.9154 14.9023 25.4651 13.9026 26.1337 13.0138ZM21.3344 25.5444C20.7577 23.5518 20.3539 21.4601 20.3734 19.3481L23.9453 19.9796C24.0043 21.5401 24.3455 23.1496 24.8428 24.8039L21.3344 25.5444ZM22.2062 28.1972C22.5544 29.1597 22.9181 30.0872 23.2638 30.9689L23.2775 31.0039L23.3535 31.1975L23.3535 31.1976C23.7027 32.0881 24.0337 32.9321 24.3294 33.7348L27.9419 33.2339C27.5697 32.1716 27.1493 31.101 26.7367 30.05L26.7367 30.0499L26.7367 30.0499L26.5999 29.7013C26.3027 28.9435 26.0122 28.1934 25.7388 27.4515L22.2062 28.1972ZM25.2008 36.4161L28.7564 35.9231C28.822 36.1935 28.881 36.4617 28.9323 36.7271C29.3737 39.0103 29.3208 41.4344 27.7928 43.5184C27.6222 43.7511 27.4465 43.9732 27.2662 44.185L24.8833 41.451L24.9149 41.4082C25.6044 40.4679 25.7807 39.2259 25.4286 37.4045C25.3663 37.0825 25.2898 36.7533 25.2008 36.4161ZM22.8185 43.3063C21.5125 44.0454 20.0608 44.2238 18.7159 43.9377L17.8411 47.4008C20.2673 47.9718 22.9214 47.6021 25.2072 46.047L22.8185 43.3063ZM16.1632 42.7102L15.2378 46.3738C12.8522 45.0089 11.0116 42.6194 10.5065 39.53L14.0283 38.9542C14.2879 40.5415 15.0842 41.8258 16.1632 42.7102ZM46.638 11.0366C47.0602 10.8196 47.4951 10.6159 47.9406 10.4245C48.734 11.1065 49.3844 11.8478 49.9083 12.6518C51.0598 14.419 51.6928 16.6315 51.7439 19.483C51.7897 22.0337 50.7408 23.9255 49.3705 25.1495C47.9422 26.4252 46.2755 26.8888 45.2006 26.7459C44.0263 26.5898 42.2986 25.6899 41.1471 24.0737C40.063 22.5521 39.4691 20.3645 40.5188 17.468C41.5735 14.5578 43.7593 12.5163 46.638 11.0366Z" fill="#2D3A5A"/>
</svg>
